<svg width="16" height="16" viewBox="0 0 16 16" fill="none" xmlns="http://www.w3.org/2000/svg">
<g clip-path="url(#clip0_0_1400)">
<path d="M15.8475 13.685C16.0225 13.8225 16.05 14.0525 15.915 14.2475C15.7775 14.4225 15.525 14.45 15.3525 14.315L0.152148 2.314C-0.0212341 2.177 -0.0508266 1.9255 0.0860734 1.75215C0.222948 1.57877 0.474498 1.54918 0.647748 1.68608L15.8475 13.685ZM15.1375 8.3075C14.8825 8.9225 14.43 9.7325 13.79 10.5325L13.1625 10.0375C13.7525 9.2775 14.17 8.5525 14.4 8C14.0675 7.1775 13.3475 5.9775 12.27 5C11.1925 3.99975 9.76 3.2 8 3.2C7.005 3.2 6.115 3.45525 5.335 3.85775L4.6525 3.3195C5.6 2.77 6.72 2.3775 8 2.3775C10.02 2.3775 11.6375 3.321 12.815 4.415C13.985 5.5 14.7675 6.7775 15.1375 7.6925C15.22 7.89 15.22 8.11 15.1375 8.3075ZM2.20975 5.4675L2.8375 5.9625C2.2465 6.7 1.83075 7.4475 1.5775 7.9775C1.93325 8.8 2.6525 10 3.73 11C4.8075 12 6.24 12.8 7.9775 12.8C8.995 12.8 9.885 12.545 10.665 12.1425L11.3475 12.68C10.3775 13.23 9.28 13.6 7.9775 13.6C5.98 13.6 4.3625 12.68 3.185 11.585C2.0155 10.4775 1.2335 9.2 0.861498 8.3075C0.779498 8.11 0.779498 7.89 0.861498 7.6925C1.11825 7.0775 1.57 6.2675 2.20975 5.4675ZM4.7775 7.9775C4.7775 7.8425 4.8125 7.69 4.8325 7.5375L5.605 8.1475C5.68 9.405 6.7025 10.4 7.9775 10.4C8.14 10.4 8.28 10.3875 8.4125 10.365L9.185 10.9725C8.8175 11.12 8.4175 11.2 7.9775 11.2C6.2325 11.2 4.7775 9.7675 4.7775 7.9775ZM11.2 7.9775C11.2 8.15751 11.1875 8.31 11.1675 8.4625L10.395 7.8525C10.32 6.59501 9.275 5.5775 7.9775 5.5775C7.86 5.5775 7.72 5.6125 7.5875 5.635L6.815 5.0275C7.1825 4.88 7.5825 4.7775 7.9775 4.7775C9.7675 4.7775 11.2 6.2325 11.2 7.9775Z" fill="#8A8B8F"/>
</g>
<defs>
<clipPath id="clip0_0_1400">
<rect width="16" height="16" fill="white"/>
</clipPath>
</defs>
</svg>
