<svg width="14" height="14" viewBox="0 0 14 14" fill="none" xmlns="http://www.w3.org/2000/svg">
<g clip-path="url(#clip0_0_1652)">
<path d="M7 0C3.13359 0 0 3.13359 0 7C0 10.8664 3.13359 14 7 14C10.8664 14 14 10.8664 14 7C14 3.13359 10.8664 0 7 0ZM7 13.125C3.62305 13.125 0.875 10.377 0.875 7C0.875 3.62305 3.62305 0.875 7 0.875C10.377 0.875 13.125 3.62305 13.125 7C13.125 10.377 10.377 13.125 7 13.125ZM7 8.3125C7.24183 8.3125 7.4375 8.11683 7.4375 7.875V3.5C7.4375 3.25817 7.24183 3.0625 7 3.0625C6.75817 3.0625 6.5625 3.25938 6.5625 3.5V7.875C6.5625 8.11563 6.75938 8.3125 7 8.3125ZM7 9.40625C6.6377 9.40625 6.34375 9.7002 6.34375 10.0625C6.34375 10.4248 6.6377 10.7188 7 10.7188C7.3623 10.7188 7.65625 10.4248 7.65625 10.0625C7.65625 9.7002 7.36367 9.40625 7 9.40625Z" fill="#C80809"/>
</g>
<defs>
<clipPath id="clip0_0_1652">
<rect width="14" height="14" fill="white"/>
</clipPath>
</defs>
</svg>
