<svg width="14" height="14" viewBox="0 0 14 14" fill="none" xmlns="http://www.w3.org/2000/svg">
<g clip-path="url(#clip0_0_1291)">
<path d="M0 1.9559C0 1.35898 0.483984 0.875 1.0809 0.875H12.9199C13.516 0.875 14 1.35898 14 1.9559C14 2.20746 13.9125 2.45109 13.7512 2.64496L8.75 8.68984V12.198C8.75 12.7094 8.33438 13.125 7.82305 13.125C7.61797 13.125 7.41836 13.0566 7.2543 12.9309L5.58906 11.632C5.37578 11.468 5.25 11.2137 5.25 10.943V8.68984L0.248172 2.64496C0.0877734 2.45109 0 2.20746 0 1.9559ZM1.0809 1.75C0.967148 1.75 0.875 1.84215 0.875 1.9559C0.875 2.00375 0.89168 2.05023 0.922305 2.08715L6.02383 8.25234C6.08945 8.33164 6.125 8.43008 6.125 8.53125V10.943L7.76836 12.2391C7.80117 12.2473 7.81211 12.25 7.82305 12.25C7.85313 12.25 7.875 12.2281 7.875 12.198V8.53125C7.875 8.43008 7.91055 8.33164 7.97617 8.25234L13.0785 2.08715C13.1086 2.05023 13.125 2.00375 13.125 1.9559C13.125 1.84215 13.032 1.75 12.9199 1.75H1.0809Z" fill="#002858"/>
</g>
<defs>
<clipPath id="clip0_0_1291">
<rect width="14" height="14" fill="white"/>
</clipPath>
</defs>
</svg>
