<svg width="16" height="16" viewBox="0 0 16 16" fill="none" xmlns="http://www.w3.org/2000/svg">
<path d="M12.853 12.8531C12.6576 13.0485 12.3414 13.0485 12.1458 12.8531L7.99988 8.70626L3.85301 12.8531C3.6576 13.0485 3.34145 13.0485 3.14582 12.8531C2.95042 12.6577 2.95042 12.3416 3.14582 12.1459L7.29363 8.00001L3.14645 3.85313C2.95104 3.65773 2.95104 3.34157 3.14645 3.14594C3.34185 2.95054 3.65801 2.95054 3.85363 3.14594L7.99988 7.29376L12.1468 3.14688C12.3422 2.95148 12.6583 2.95148 12.8539 3.14688C13.0494 3.34229 13.0494 3.65844 12.8539 3.85407L8.70613 8.00001L12.853 12.1469C13.0499 12.3406 13.0499 12.6594 12.853 12.8531Z" fill="#002858"/>
</svg>
