<svg width="16" height="16" viewBox="0 0 16 16" fill="none" xmlns="http://www.w3.org/2000/svg">
<g clip-path="url(#clip0_0_2690)">
<path d="M2 2C2.55219 2 3 2.44781 3 3C3 3.55313 2.55219 4 2 4C1.44781 4 1 3.55313 1 3C1 2.44781 1.44781 2 2 2ZM15.5 2.5C15.775 2.5 16 2.72375 16 3C16 3.275 15.775 3.5 15.5 3.5H5.5C5.225 3.5 5 3.275 5 3C5 2.72375 5.225 2.5 5.5 2.5H15.5ZM15.5 7.5C15.775 7.5 16 7.725 16 8C16 8.275 15.775 8.5 15.5 8.5H5.5C5.225 8.5 5 8.275 5 8C5 7.725 5.225 7.5 5.5 7.5H15.5ZM15.5 12.5C15.775 12.5 16 12.725 16 13C16 13.275 15.775 13.5 15.5 13.5H5.5C5.225 13.5 5 13.275 5 13C5 12.725 5.225 12.5 5.5 12.5H15.5ZM2 9C1.44781 9 1 8.55312 1 8C1 7.44688 1.44781 7 2 7C2.55219 7 3 7.44688 3 8C3 8.55312 2.55219 9 2 9ZM2 12C2.55219 12 3 12.4469 3 13C3 13.5531 2.55219 14 2 14C1.44781 14 1 13.5531 1 13C1 12.4469 1.44781 12 2 12Z" fill="#002858"/>
</g>
<defs>
<clipPath id="clip0_0_2690">
<rect width="16" height="16" fill="white"/>
</clipPath>
</defs>
</svg>
