<svg width="16" height="16" viewBox="0 0 16 16" fill="none" xmlns="http://www.w3.org/2000/svg">
<path d="M4.5 0C4.775 0 5 0.223875 5 0.5V2H11V0.5C11 0.223875 11.225 0 11.5 0C11.775 0 12 0.223875 12 0.5V2H13C14.1031 2 15 2.89531 15 4V14C15 15.1031 14.1031 16 13 16H3C1.89531 16 1 15.1031 1 14V4C1 2.89531 1.89531 2 3 2H4V0.5C4 0.223875 4.225 0 4.5 0ZM14 6H10.75V8.25H14V6ZM14 9.25H10.75V11.75H14V9.25ZM14 12.75H10.75V15H13C13.5531 15 14 14.5531 14 14V12.75ZM9.75 11.75V9.25H6.25V11.75H9.75ZM6.25 15H9.75V12.75H6.25V15ZM5.25 11.75V9.25H2V11.75H5.25ZM2 12.75V14C2 14.5531 2.44781 15 3 15H5.25V12.75H2ZM2 8.25H5.25V6H2V8.25ZM6.25 8.25H9.75V6H6.25V8.25ZM13 3H3C2.44781 3 2 3.44688 2 4V5H14V4C14 3.44688 13.5531 3 13 3Z" fill="#002858"/>
</svg>
