<svg width="16" height="16" viewBox="0 0 16 16" fill="none" xmlns="http://www.w3.org/2000/svg">
<path d="M0 4C0 2.89531 0.895313 2 2 2H14C15.1031 2 16 2.89531 16 4V12C16 13.1031 15.1031 14 14 14H2C0.895313 14 0 13.1031 0 12V4ZM1 4V5.24687L7.1125 9.72812C7.64062 10.1156 8.35938 10.1156 8.8875 9.72812L15 5.24687V4C15 3.44687 14.5531 3 14 3H1.97187C1.44781 3 0.971875 3.44687 0.971875 4H1ZM1 6.4875V12C1 12.5531 1.44781 13 2 13H14C14.5531 13 15 12.5531 15 12V6.4875L9.47812 10.5344C8.59687 11.1813 7.40312 11.1813 6.52187 10.5344L1 6.4875Z" fill="#002858"/>
</svg>
