<svg width="16" height="16" viewBox="0 0 16 16" fill="none" xmlns="http://www.w3.org/2000/svg">
<path d="M9.5 2C9.225 2 9 1.77625 9 1.5C9 1.22375 9.225 1 9.5 1H14.5C14.775 1 15 1.22375 15 1.5V6.5C15 6.775 14.775 7 14.5 7C14.225 7 14 6.775 14 6.5V2.70719L6.85313 9.85312C6.65938 10.05 6.34062 10.05 6.14687 9.85312C5.95 9.65937 5.95 9.34063 6.14687 9.14688L13.2937 2H9.5ZM1 3.5C1 2.67156 1.67156 2 2.5 2H6.5C6.775 2 7 2.22375 7 2.5C7 2.77625 6.775 3 6.5 3H2.5C2.22375 3 2 3.225 2 3.5V13.5C2 13.775 2.22375 14 2.5 14H12.5C12.775 14 13 13.775 13 13.5V9.5C13 9.225 13.225 9 13.5 9C13.775 9 14 9.225 14 9.5V13.5C14 14.3281 13.3281 15 12.5 15H2.5C1.67156 15 1 14.3281 1 13.5V3.5Z" fill="#8A8B8F"/>
</svg>
